<svg xmlns="http://www.w3.org/2000/svg" width="1200" height="620" viewBox="0 0 1200 620">
  <defs><linearGradient id="g" x1="0" x2="1"><stop stop-color="#0EA5E9"/><stop offset="1" stop-color="#22C55E"/></linearGradient></defs>
  <rect width="1200" height="620" rx="36" fill="#F8FAFC"/>
  <text x="70" y="80" font-size="34" font-family="PingFang SC,Arial" font-weight="800" fill="#10213E">客服邮件 Agent：先拆流程，再连成图</text>
  <g font-family="PingFang SC,Arial" font-size="18" font-weight="700">
    <rect x="80" y="155" width="170" height="70" rx="18" fill="#fff" stroke="#5DB2E2"/><text x="123" y="198" fill="#10213E">Read Email</text>
    <rect x="330" y="155" width="190" height="70" rx="18" fill="#fff" stroke="#5DB2E2"/><text x="368" y="198" fill="#10213E">Classify Intent</text>
    <rect x="600" y="95" width="180" height="70" rx="18" fill="#fff" stroke="#22C55E"/><text x="642" y="138" fill="#10213E">Doc Search</text>
    <rect x="600" y="245" width="180" height="70" rx="18" fill="#fff" stroke="#F59E0B"/><text x="635" y="288" fill="#10213E">Human Review</text>
    <rect x="850" y="155" width="160" height="70" rx="18" fill="#fff" stroke="#625D9C"/><text x="888" y="198" fill="#10213E">Draft Reply</text>
    <rect x="850" y="365" width="160" height="70" rx="18" fill="#fff" stroke="#625D9C"/><text x="895" y="408" fill="#10213E">Send Reply</text>
  </g>
  <g stroke="url(#g)" stroke-width="4" fill="none" stroke-linecap="round"><path d="M250 190H330"/><path d="M520 190 C560 190 560 130 600 130"/><path d="M520 190 C560 190 560 280 600 280"/><path d="M780 130 C820 130 820 190 850 190"/><path d="M780 280 C840 280 840 190 850 190"/><path d="M930 225V365"/></g>
  <text x="575" y="440" font-size="18" font-family="PingFang SC,Arial" fill="#64748B">高风险任务先暂停，等人确认后再继续</text>
</svg>
